#Comment line ignore any data following # character 
#Hierarchical Translation and Rotation (.htr) file 
[Header]	
#Header keywords are followed by a single value 
FileType HTR		#Single word string
DataType HTRS		#Translation followed by rotation and scale data
FileVersion 1		#integer
NumSegments 64		#integer
NumFrames 3		#integer
DataFrameRate 30		#integer, data frame rate in this file
EulerRotationOrder ZYX
CalibrationUnits mm
RotationUnits Degrees
GlobalAxisofGravity Y
BoneLengthAxis Y
ScaleFactor 1.00
[SegmentNames&Hierarchy]
#CHILD	PARENT
Pinger_Root GLOBAL
Pelvis Pinger_Root
L_Hip Pelvis
R_Hip Pelvis
Rear_Leg01 Pelvis
Spine1 Pelvis
L_Leg01 L_Hip
L_Leg02 L_Leg01
L_Leg03 L_Leg02
L_Foot L_Leg03
L_Toe1_01 L_Foot
L_Toe2_01 L_Foot
L_Toe3_01 L_Foot
planeAlignerLeft L_Foot
L_Toe1_02 L_Toe1_01
L_Toe1_03 L_Toe1_02
L_Toe2_02 L_Toe2_01
L_Toe2_03 L_Toe2_02
L_Toe3_02 L_Toe3_01
L_Toe3_03 L_Toe3_02
planeLockWeightLeft planeAlignerLeft
R_Leg01 R_Hip
R_Leg02 R_Leg01
R_Leg03 R_Leg02
R_Foot R_Leg03
planeAlignerRight R_Foot
R_Toe1_01 R_Foot
R_Toe2_01 R_Foot
R_Toe3_01 R_Foot
planeLockWeightRight planeAlignerRight
R_Toe1_02 R_Toe1_01
R_Toe1_03 R_Toe1_02
R_Toe2_02 R_Toe2_01
R_Toe2_03 R_Toe2_02
R_Toe3_02 R_Toe3_01
R_Toe3_03 R_Toe3_02
Rear_Leg02 Rear_Leg01
Rear_Leg03 Rear_Leg02
Rear_Leg04 Rear_Leg03
Rear_Foot Rear_Leg04
planeAlignerCenter Rear_Foot
Rear_Toe1_01 Rear_Foot
Rear_Toe2_01 Rear_Foot
Rear_Toe3_01 Rear_Foot
planeLockWeightCenter planeAlignerCenter
Rear_Toe1_02 Rear_Toe1_01
Rear_Toe1_03 Rear_Toe1_02
Rear_Toe2_02 Rear_Toe2_01
Rear_Toe2_03 Rear_Toe2_02
Rear_Toe3_02 Rear_Toe3_01
Rear_Toe3_03 Rear_Toe3_02
Back_Bone Spine1
Head Spine1
Motor_Bone Back_Bone
Ping_Mechanism Back_Bone
BN_LookIK Head
bottomMouth Head
L_Mouth01 Head
L_mouthFront Head
mouthGun Head
R_Mouth01 Head
R_mouthFront Head
TopMouth Head
weapon_bone Head
[BasePosition]
#SegmentName Tx, Ty, Tz, Rx, Ry, Rz, BoneLength
Pinger_Root 0.000000 0.000000 0.000000 -90.000000 0.000000 0.000000 10.000000 
Pelvis 0.000000 0.000000 0.000000 0.000000 0.000000 0.000000 10.000000 
L_Hip 0.000000 0.000000 0.000000 0.000000 0.000000 0.000000 10.000000 
R_Hip 0.000000 0.000000 0.000000 0.000000 0.000000 0.000000 10.000000 
Rear_Leg01 0.000000 0.000000 0.000000 0.000000 0.000000 0.000000 10.000000 
Spine1 0.000000 0.000000 0.000000 0.000000 0.000000 0.000000 10.000000 
L_Leg01 0.000000 0.000000 0.000000 0.000000 0.000000 0.000000 10.000000 
L_Leg02 0.000000 0.000000 0.000000 0.000000 0.000000 0.000000 10.000000 
L_Leg03 0.000000 0.000000 0.000000 0.000000 0.000000 0.000000 10.000000 
L_Foot 0.000000 0.000000 0.000000 0.000000 0.000000 0.000000 10.000000 
L_Toe1_01 0.000000 0.000000 0.000000 0.000000 0.000000 0.000000 10.000000 
L_Toe2_01 0.000000 0.000000 0.000000 0.000000 0.000000 0.000000 10.000000 
L_Toe3_01 0.000000 0.000000 0.000000 0.000000 0.000000 0.000000 10.000000 
planeAlignerLeft 0.000000 0.000000 0.000000 0.000000 0.000000 0.000000 10.000000 
L_Toe1_02 0.000000 0.000000 0.000000 0.000000 0.000000 0.000000 10.000000 
L_Toe1_03 0.000000 0.000000 0.000000 0.000000 0.000000 0.000000 10.000000 
L_Toe2_02 0.000000 0.000000 0.000000 0.000000 0.000000 0.000000 10.000000 
L_Toe2_03 0.000000 0.000000 0.000000 0.000000 0.000000 0.000000 10.000000 
L_Toe3_02 0.000000 0.000000 0.000000 0.000000 0.000000 0.000000 10.000000 
L_Toe3_03 0.000000 0.000000 0.000000 0.000000 0.000000 0.000000 10.000000 
planeLockWeightLeft 0.000000 0.000000 0.000000 0.000000 0.000000 0.000000 10.000000 
R_Leg01 0.000000 0.000000 0.000000 0.000000 0.000000 0.000000 10.000000 
R_Leg02 0.000000 0.000000 0.000000 0.000000 0.000000 0.000000 10.000000 
R_Leg03 0.000000 0.000000 0.000000 0.000000 0.000000 0.000000 10.000000 
R_Foot 0.000000 0.000000 0.000000 0.000000 0.000000 0.000000 10.000000 
planeAlignerRight 0.000000 0.000000 0.000000 0.000000 0.000000 0.000000 10.000000 
R_Toe1_01 0.000000 0.000000 0.000000 0.000000 0.000000 0.000000 10.000000 
R_Toe2_01 0.000000 0.000000 0.000000 0.000000 0.000000 0.000000 10.000000 
R_Toe3_01 0.000000 0.000000 0.000000 0.000000 0.000000 0.000000 10.000000 
planeLockWeightRight 0.000000 0.000000 0.000000 0.000000 0.000000 0.000000 10.000000 
R_Toe1_02 0.000000 0.000000 0.000000 0.000000 0.000000 0.000000 10.000000 
R_Toe1_03 0.000000 0.000000 0.000000 0.000000 0.000000 0.000000 10.000000 
R_Toe2_02 0.000000 0.000000 0.000000 0.000000 0.000000 0.000000 10.000000 
R_Toe2_03 0.000000 0.000000 0.000000 0.000000 0.000000 0.000000 10.000000 
R_Toe3_02 0.000000 0.000000 0.000000 0.000000 0.000000 0.000000 10.000000 
R_Toe3_03 0.000000 0.000000 0.000000 0.000000 0.000000 0.000000 10.000000 
Rear_Leg02 0.000000 0.000000 0.000000 0.000000 0.000000 0.000000 10.000000 
Rear_Leg03 0.000000 0.000000 0.000000 0.000000 0.000000 0.000000 10.000000 
Rear_Leg04 0.000000 0.000000 0.000000 0.000000 0.000000 0.000000 10.000000 
Rear_Foot 0.000000 0.000000 0.000000 0.000000 0.000000 0.000000 10.000000 
planeAlignerCenter 0.000000 0.000000 0.000000 0.000000 0.000000 0.000000 10.000000 
Rear_Toe1_01 0.000000 0.000000 0.000000 0.000000 0.000000 0.000000 10.000000 
Rear_Toe2_01 0.000000 0.000000 0.000000 0.000000 0.000000 0.000000 10.000000 
Rear_Toe3_01 0.000000 0.000000 0.000000 0.000000 0.000000 0.000000 10.000000 
planeLockWeightCenter 0.000000 0.000000 0.000000 0.000000 0.000000 0.000000 10.000000 
Rear_Toe1_02 0.000000 0.000000 0.000000 0.000000 0.000000 0.000000 10.000000 
Rear_Toe1_03 0.000000 0.000000 0.000000 0.000000 0.000000 0.000000 10.000000 
Rear_Toe2_02 0.000000 0.000000 0.000000 0.000000 0.000000 0.000000 10.000000 
Rear_Toe2_03 0.000000 0.000000 0.000000 0.000000 0.000000 0.000000 10.000000 
Rear_Toe3_02 0.000000 0.000000 0.000000 0.000000 0.000000 0.000000 10.000000 
Rear_Toe3_03 0.000000 0.000000 0.000000 0.000000 0.000000 0.000000 10.000000 
Back_Bone 0.000000 0.000000 0.000000 0.000000 0.000000 0.000000 10.000000 
Head 0.000000 0.000000 0.000000 0.000000 0.000000 0.000000 10.000000 
Motor_Bone 0.000000 0.000000 0.000000 0.000000 0.000000 0.000000 10.000000 
Ping_Mechanism 0.000000 0.000000 0.000000 0.000000 0.000000 0.000000 10.000000 
BN_LookIK 0.000000 0.000000 0.000000 0.000000 0.000000 0.000000 10.000000 
bottomMouth 0.000000 0.000000 0.000000 0.000000 0.000000 0.000000 10.000000 
L_Mouth01 0.000000 0.000000 0.000000 0.000000 0.000000 0.000000 10.000000 
L_mouthFront 0.000000 0.000000 0.000000 0.000000 0.000000 0.000000 10.000000 
mouthGun 0.000000 0.000000 0.000000 0.000000 0.000000 0.000000 10.000000 
R_Mouth01 0.000000 0.000000 0.000000 0.000000 0.000000 0.000000 10.000000 
R_mouthFront 0.000000 0.000000 0.000000 0.000000 0.000000 0.000000 10.000000 
TopMouth 0.000000 0.000000 0.000000 0.000000 0.000000 0.000000 10.000000 
weapon_bone 0.000000 0.000000 0.000000 0.000000 0.000000 0.000000 10.000000 
#Beginning of Data. Separated by tabs
#Fr	Tx	Ty	Tz	Rx	Ry	Rz	SF
[Pinger_Root]
21 0.000000 -2592.592285 0.000000 -0.000075 -0.000000 -0.000020 2592.592285
22 0.000000 -2722.222168 0.000000 -0.000075 -0.000000 -0.000020 2722.222168
23 0.000000 -2851.851563 0.000000 -0.000075 -0.000000 -0.000020 2851.851318
[Pelvis]
21 -314.150024 37.741028 4886.183594 -119.496323 -67.437180 106.846420 4896.417480
22 -279.640564 6.913483 4890.124512 -123.652008 -66.208832 108.952873 4898.118652
23 -237.796890 -11.186531 4897.146973 -125.041542 -65.542992 108.594025 4902.930176
[L_Hip]
21 5.766392 125.831482 872.656799 -178.250168 -81.786369 87.376007 881.701050
22 5.766392 125.831482 872.656799 -178.250168 -81.786369 87.376007 881.701050
23 5.766392 125.831482 872.656799 -178.250168 -81.786369 87.376007 881.701050
[R_Hip]
21 5.765438 125.836372 -872.654907 -1.748770 81.786041 87.376961 881.699829
22 5.765438 125.836372 -872.654907 -1.748770 81.786041 87.376961 881.699829
23 5.765438 125.836372 -872.654907 -1.748770 81.786041 87.376961 881.699829
[Rear_Leg01]
21 -192.298416 -925.602966 -0.001907 165.556381 0.690691 -178.379166 945.367432
22 -192.298416 -925.602966 -0.001907 163.402191 -0.153228 -178.114990 945.367432
23 -192.298416 -925.602966 -0.001907 161.652328 -0.705096 -179.537125 945.367432
[Spine1]
21 290.604584 5.007505 0.000477 14.864155 7.259866 -2.287011 290.647736
22 290.604584 5.007505 0.000477 16.723125 8.652987 -2.544573 290.647736
23 290.604584 5.007505 0.000477 18.129301 8.913314 -2.773664 290.647736
[L_Leg01]
21 761.932007 -0.002384 -0.069261 11.710395 -49.468082 -10.570866 761.932068
22 761.932007 -0.002384 -0.069261 8.852330 -46.866734 -6.770197 761.932068
23 761.932007 -0.002384 -0.069261 8.144323 -44.681450 -6.785054 761.932068
[L_Leg02]
21 1441.140503 -0.000954 -0.000715 0.318218 -0.031016 -122.086754 1441.140503
22 1441.140503 -0.000954 -0.000715 0.230682 -0.007703 -120.856575 1441.140503
23 1441.140503 -0.000954 -0.000715 -0.102535 0.066154 -117.426605 1441.140503
[L_Leg03]
21 1686.963989 -0.000715 -0.000954 0.012207 -0.005292 106.400246 1686.963989
22 1686.963989 -0.000715 -0.000954 0.012195 -0.005320 106.662300 1686.963989
23 1686.963989 -0.000715 -0.000954 0.012183 -0.005348 106.924347 1686.963989
[L_Foot]
21 3041.570068 -30.715107 11.297464 -3.667387 7.848471 43.616486 3041.746094
22 3041.570068 -30.715107 11.297464 -3.473810 6.851861 41.148010 3041.746094
23 3041.570068 -30.715107 11.297464 -3.599012 6.150217 38.396633 3041.746094
[L_Toe1_01]
21 -188.216690 -224.732346 -21.137953 88.916855 -1.635797 -149.307724 293.899567
22 -188.216690 -224.732346 -21.137953 88.881844 -1.610339 -148.123520 293.899567
23 -188.216690 -224.732346 -21.137953 88.847351 -1.584164 -146.939316 293.899567
[L_Toe2_01]
21 200.746536 -219.926590 148.838394 -75.246140 -11.137193 -56.480675 332.896027
22 200.746536 -219.926590 148.838394 -75.072220 -10.907173 -57.436863 332.896027
23 200.746536 -219.926590 148.838394 -74.902351 -10.674336 -58.391590 332.896027
[L_Toe3_01]
21 188.832520 -219.859131 -191.078659 -109.073837 13.711253 -58.422230 347.140900
22 188.832520 -219.859131 -191.078659 -109.265717 13.441506 -59.279385 347.140900
23 188.832520 -219.859131 -191.078659 -109.453239 13.168996 -60.134701 347.140900
[planeAlignerLeft]
21 -75.672760 -769.314148 0.049286 0.000000 -90.000000 -90.001900 773.026978
22 -77.051079 -782.140503 0.047226 0.000000 -90.000000 -90.001900 785.926575
23 -78.429398 -794.966736 0.045166 0.000000 -90.000000 -90.001900 798.826233
[L_Toe1_02]
21 413.761139 0.000477 0.000000 0.001385 -25.881001 0.001385 413.761139
22 413.761139 0.000477 0.000000 0.001385 -25.825197 0.001385 413.761139
23 413.761139 0.000477 0.000000 0.001386 -25.769396 0.001386 413.761139
[L_Toe1_03]
21 464.317322 0.000358 -0.000089 0.003785 53.859913 0.003785 464.317322
22 464.317322 0.000358 -0.000089 0.003546 51.347614 0.003546 464.317322
23 464.317322 0.000358 -0.000089 0.003366 49.189697 0.003366 464.317322
[L_Toe2_02]
21 342.235809 -0.000477 0.000238 0.001183 -75.945717 0.001183 342.235809
22 342.235809 -0.000477 0.000238 0.001183 -75.544601 0.001183 342.235809
23 342.235809 -0.000477 0.000238 0.001184 -75.143585 0.001184 342.235809
[L_Toe2_03]
21 420.210846 -0.000715 0.000000 -179.990646 84.064095 -179.987152 420.210846
22 420.210846 -0.000715 0.000000 -179.986557 85.665146 -179.983047 420.210846
23 420.210846 -0.000715 0.000000 -179.981018 86.822693 -179.977524 420.210846
[L_Toe3_02]
21 329.270111 0.000954 0.000000 0.001178 -79.683517 0.001178 329.270111
22 329.270111 0.000954 0.000000 0.001179 -79.312164 0.001179 329.270111
23 329.270111 0.000954 0.000000 0.001179 -78.940842 0.001179 329.270111
[L_Toe3_03]
21 439.137451 -0.001907 0.000954 -179.993744 81.777245 -179.990219 439.137451
22 439.137451 -0.001907 0.000954 -179.991959 83.267189 -179.988464 439.137451
23 439.137451 -0.001907 0.000954 -179.990097 84.351662 -179.986588 439.137451
[planeLockWeightLeft]
21 999.998962 0.098155 0.076097 -0.011826 -0.004376 0.005620 999.999023
22 999.998962 0.098161 0.076088 -0.011826 -0.004376 0.005620 999.999023
23 999.998962 0.098167 0.076080 -0.011826 -0.004376 0.005620 999.999023
[R_Leg01]
21 761.455627 -0.001907 -0.000358 93.735580 -37.875057 77.141289 761.455688
22 761.455627 -0.001907 -0.000358 90.231186 -25.850418 80.124741 761.455688
23 761.455627 -0.001907 -0.000358 87.734146 -18.127186 80.913704 761.455688
[R_Leg02]
21 1441.140625 0.000000 -0.000238 -0.643858 -0.056993 -111.618668 1441.140625
22 1441.140625 0.000000 -0.000238 -0.577440 -0.003751 -95.137856 1441.140625
23 1441.140625 0.000000 -0.000238 -0.512802 0.049531 -86.494370 1441.140625
[R_Leg03]
21 1686.963989 0.000954 0.001431 0.080092 -0.041889 131.890320 1686.963989
22 1686.963989 0.000954 0.001431 0.073998 -0.038560 130.603470 1686.963989
23 1686.963989 0.000954 0.001431 0.067985 -0.035098 128.849823 1686.963989
[R_Foot]
21 3041.560059 -30.531288 -11.204481 20.037600 -20.211040 32.299522 3041.734131
22 3041.560059 -30.531288 -11.204481 21.560415 -19.476185 25.080441 3041.734131
23 3041.560059 -30.531288 -11.204481 22.527557 -19.155836 23.305929 3041.734131
[planeAlignerRight]
21 -257.754089 -799.680603 13.081970 0.000000 -89.960434 -90.005180 840.296021
22 -273.900726 -798.789734 12.145998 0.000000 -89.960434 -90.005180 844.531921
23 -284.376801 -798.612671 10.686956 0.000000 -89.960434 -90.005180 847.800964
[R_Toe1_01]
21 -188.383347 -224.864899 21.052242 91.292374 0.980687 -145.232925 294.101532
22 -188.383347 -224.864899 21.052242 91.262825 1.057337 -145.409760 294.101532
23 -188.383347 -224.864899 21.052242 91.243645 1.167299 -145.355347 294.101532
[R_Toe2_01]
21 200.637817 -220.002121 -148.787384 -107.616852 7.261062 -82.736542 332.857574
22 200.637817 -220.002121 -148.787384 -107.604263 7.847185 -82.109985 332.857574
23 200.637817 -220.002121 -148.787384 -107.565971 8.487174 -81.088036 332.857574
[R_Toe3_01]
21 188.606735 -220.092957 191.126343 -67.217117 -9.826399 -84.192719 347.192566
22 188.606735 -220.092957 191.126343 -67.264740 -10.241269 -83.565460 347.192566
23 188.606735 -220.092957 191.126343 -67.334961 -10.690033 -82.548241 347.192566
[planeLockWeightRight]
21 -0.000305 -0.000610 0.076408 -0.011823 -0.004379 -0.000027 0.076411
22 103.999428 -0.000305 0.076447 -0.011823 -0.004379 -0.000027 103.999458
23 351.998871 -0.000000 0.076218 -0.011823 -0.004379 -0.000027 351.998871
[R_Toe1_02]
21 413.762085 0.000477 -0.000119 0.001401 -23.833115 0.001401 413.762085
22 413.762085 0.000477 -0.000119 0.001398 -24.235197 0.001398 413.762085
23 413.762085 0.000477 -0.000119 0.001394 -24.637259 0.001394 413.762085
[R_Toe1_03]
21 464.317810 0.000000 0.001088 0.008654 74.408913 0.008654 464.317810
22 464.317810 0.000000 0.001088 0.007575 72.173409 0.007575 464.317810
23 464.317810 0.000000 0.001088 0.006604 69.521332 0.006604 464.317810
[R_Toe2_02]
21 342.234741 -0.000954 0.000238 -0.002331 -80.445084 -0.002331 342.234741
22 342.234741 -0.000954 0.000238 -0.002331 -80.525993 -0.002331 342.234741
23 342.234741 -0.000954 0.000238 -0.002331 -80.606941 -0.002331 342.234741
[R_Toe2_03]
21 420.210846 0.000715 -0.000268 -179.996201 56.173332 -179.999863 420.210846
22 420.210846 0.000715 -0.000268 -179.996231 55.388519 -179.999893 420.210846
23 420.210846 0.000715 -0.000268 -179.996246 55.109600 -179.999908 420.210846
[R_Toe3_02]
21 329.270355 -0.000477 -0.000954 0.001175 -84.125336 0.001175 329.270355
22 329.270355 -0.000477 -0.000954 0.001175 -84.228912 0.001175 329.270355
23 329.270355 -0.000477 -0.000954 0.001175 -84.332474 0.001175 329.270355
[R_Toe3_03]
21 439.137939 0.000238 0.001431 -179.995834 55.465397 -179.988525 439.137939
22 439.137939 0.000238 0.001431 -179.996017 54.663589 -179.988678 439.137939
23 439.137939 0.000238 0.001431 -179.996094 54.327290 -179.988754 439.137939
[Rear_Leg02]
21 1162.777710 -0.029802 0.005960 -3.274575 6.808463 -108.211739 1162.777710
22 1162.777710 -0.029802 0.005960 -4.310387 7.890087 -106.945488 1162.777710
23 1162.777710 -0.029802 0.005960 -5.296406 8.761599 -107.865692 1162.777710
[Rear_Leg03]
21 607.192505 -0.013351 -0.073195 0.010421 -0.005250 69.828423 607.192505
22 607.192505 -0.013351 -0.073195 0.010387 -0.005318 70.577454 607.192505
23 607.192505 -0.013351 -0.073195 0.010352 -0.005386 71.326492 607.192505
[Rear_Leg04]
21 995.874512 -0.020504 -0.011921 -0.040631 -0.017836 69.961174 995.874573
22 995.874512 -0.020504 -0.011921 -0.040936 -0.017142 71.919579 995.874573
23 995.874512 -0.020504 -0.011921 -0.041217 -0.016437 73.877945 995.874573
[Rear_Foot]
21 3096.176270 -0.067472 -0.041425 41.495712 79.075325 -146.857559 3096.176270
22 3096.176270 -0.067472 -0.041425 46.993332 78.032669 -144.858856 3096.176270
23 3096.176270 -0.067472 -0.041425 51.791298 77.203125 -142.723587 3096.176270
[planeAlignerCenter]
21 1.035042 -39.631687 -760.908203 0.000009 0.000003 -179.999985 761.940308
22 1.035251 -21.518589 -786.057739 0.000009 0.000003 -179.999985 786.352905
23 1.035461 -2.205275 -807.528076 0.000009 0.000003 -179.999985 807.531799
[Rear_Toe1_01]
21 0.653352 83.966492 -371.173737 0.069059 22.287550 90.030823 380.553192
22 0.653352 83.966492 -371.173737 0.068343 24.483089 90.031731 380.553192
23 0.653352 83.966492 -371.173737 0.067656 26.678627 90.032639 380.553192
[Rear_Toe2_01]
21 178.200760 -294.826019 -362.060547 -0.477463 49.495197 -72.774261 499.765686
22 178.200760 -294.826019 -362.060547 -0.299414 51.037853 -72.382217 499.765686
23 178.200760 -294.826019 -362.060547 -0.097878 52.579090 -71.968803 499.765686
[Rear_Toe3_01]
21 -153.359680 -308.780914 -362.060852 0.387416 49.492916 -109.375900 499.952881
22 -153.359680 -308.780914 -362.060852 0.177222 51.032238 -109.821556 499.952881
23 -153.359680 -308.780914 -362.060852 -0.059880 52.569855 -110.291809 499.952881
[planeLockWeightCenter]
21 1000.000122 -0.000091 0.076240 -0.011814 -0.004373 -0.000015 1000.000122
22 1000.000122 -0.000074 0.076240 -0.011814 -0.004373 -0.000015 1000.000122
23 1000.000122 -0.000058 0.076241 -0.011814 -0.004373 -0.000015 1000.000122
[Rear_Toe1_02]
21 379.707825 0.194073 0.000477 -0.000767 -33.624729 0.000838 379.707855
22 379.707825 0.194073 0.000477 -0.000767 -33.624729 0.000838 379.707855
23 379.707825 0.194073 0.000477 -0.000767 -33.624729 0.000838 379.707855
[Rear_Toe1_03]
21 500.129700 0.165701 0.000119 -0.035560 88.234421 -0.039057 500.129761
22 500.129700 0.165701 0.000119 0.005926 83.193665 0.004173 500.129761
23 500.129700 0.165701 0.000119 0.011372 78.152672 0.011372 500.129761
[Rear_Toe2_02]
21 340.494507 0.000238 -0.000954 0.001185 -74.016121 0.001185 340.494507
22 340.494507 0.000238 -0.000954 0.001184 -74.623322 0.001184 340.494507
23 340.494507 0.000238 -0.000954 0.001183 -75.230560 0.001183 340.494507
[Rear_Toe2_03]
21 433.103577 0.000000 0.000238 0.010096 76.649445 0.010096 433.103546
22 433.103577 0.000000 0.000238 0.010676 77.377518 0.010676 433.103546
23 433.103577 0.000000 0.000238 0.011717 78.501877 0.011717 433.103546
[Rear_Toe3_02]
21 340.494141 -0.000358 -0.000477 0.001185 -74.009926 0.001185 340.494171
22 340.494141 -0.000358 -0.000477 0.001184 -74.598228 0.001184 340.494171
23 340.494141 -0.000358 -0.000477 0.001184 -75.186531 0.001184 340.494171
[Rear_Toe3_03]
21 433.103577 0.001431 -0.000238 0.010084 76.633492 0.010084 433.103546
22 433.103577 0.001431 -0.000238 0.010634 77.326843 0.010634 433.103546
23 433.103577 0.001431 -0.000238 0.011631 78.416183 0.011631 433.103546
[Back_Bone]
21 1312.175781 -701.934692 0.000954 0.763396 -3.650662 -85.498573 1488.125488
22 1312.175781 -701.934692 0.000954 1.139223 -3.630697 -85.173935 1488.125488
23 1312.175781 -701.934692 0.000954 1.515148 -3.612855 -84.849152 1488.125488
[Head]
21 1406.159424 809.709290 0.001431 -1.656531 -2.773496 24.791735 1622.625488
22 1406.159424 809.709290 0.001431 -1.238435 -2.952594 24.734966 1622.625488
23 1406.159424 809.709290 0.001431 -0.809084 -3.030925 24.451611 1622.625488
[Motor_Bone]
21 1158.364380 -417.834747 0.000477 -3.495549 0.584007 -105.401466 1231.419434
22 1158.364380 -417.834747 0.000477 0.251848 -0.541806 -106.527901 1231.419434
23 1158.364380 -417.834747 0.000477 2.270580 -1.149515 -107.133400 1231.419434
[Ping_Mechanism]
21 1321.242310 -452.744141 -35.074577 0.000103 -0.000053 82.120995 1397.100098
22 1325.513794 -451.994293 -41.418293 0.000103 -0.000053 82.120995 1401.071411
23 1328.466797 -453.404510 -42.166058 0.000103 -0.000053 82.120995 1404.342407
[BN_LookIK]
21 193.241119 1380.371704 -0.002861 0.000000 89.965736 -31.038179 1393.832153
22 193.241119 1380.371704 -0.002861 0.000000 89.965736 -31.038179 1393.832153
23 193.241119 1380.371704 -0.002861 0.000000 89.965736 -31.038179 1393.832153
[bottomMouth]
21 -435.092926 615.759399 -0.000954 -0.000022 0.000016 73.527184 753.966492
22 -435.092926 615.759399 -0.000954 -0.000022 0.000016 73.527184 753.966492
23 -435.092926 615.759399 -0.000954 -0.000022 0.000016 73.527184 753.966492
[L_Mouth01]
21 554.440979 7.658243 838.222046 150.204178 23.759130 109.605339 1005.027161
22 554.440979 7.658243 838.222046 150.204178 23.759130 109.605339 1005.027161
23 554.440979 7.658243 838.222046 150.204178 23.759130 109.605339 1005.027161
[L_mouthFront]
21 551.629089 934.514771 339.150421 0.000081 2.804060 79.119301 1136.941284
22 551.629089 934.514771 339.150421 0.000081 2.804060 79.119301 1136.941284
23 551.629089 934.514771 339.150421 0.000081 2.804060 79.119301 1136.941284
[mouthGun]
21 55.332661 1627.420898 0.000000 0.000023 0.000009 -11.038128 1628.361328
22 55.332661 1627.420898 0.000000 0.000023 0.000009 -11.038128 1628.361328
23 55.332661 1627.420898 0.000000 0.000023 0.000009 -11.038128 1628.361328
[R_Mouth01]
21 554.442383 7.659197 -838.223938 29.795891 -23.759109 109.605331 1005.029541
22 554.442383 7.659197 -838.223938 29.795891 -23.759109 109.605331 1005.029541
23 554.442383 7.659197 -838.223938 29.795891 -23.759109 109.605331 1005.029541
[R_mouthFront]
21 551.629089 934.514282 -339.151367 0.000029 -2.803930 79.119133 1136.941162
22 551.629089 934.514282 -339.151367 0.000029 -2.803930 79.119133 1136.941162
23 551.629089 934.514282 -339.151367 0.000029 -2.803930 79.119133 1136.941162
[TopMouth]
21 461.269867 -56.106091 -0.008583 -0.000059 -0.000268 92.025169 464.669525
22 461.269867 -56.106091 -0.008583 -0.000059 -0.000268 92.025169 464.669525
23 461.269867 -56.106091 -0.008583 -0.000059 -0.000268 92.025169 464.669525
[weapon_bone]
21 -987.239868 1448.372803 0.001431 0.000000 89.965736 -31.038221 1752.833740
22 -987.239868 1448.372803 0.001431 0.000000 89.965736 -31.038221 1752.833740
23 -987.239868 1448.372803 0.001431 0.000000 89.965736 -31.038221 1752.833740
